<?xml version="1.0" standalone="no"?>
<!DOCTYPE svg PUBLIC "-//W3C//DTD SVG 20010904//EN"
 "http://www.w3.org/TR/2001/REC-SVG-20010904/DTD/svg10.dtd">
<svg version="1.0" xmlns="http://www.w3.org/2000/svg"
 width="100.000000pt" height="100.000000pt" viewBox="0 0 100.000000 100.000000"
 preserveAspectRatio="xMidYMid meet">
<metadata>
Created by potrace 1.14, written by Peter Selinger 2001-2017
</metadata>
<g transform="translate(0.000000,100.000000) scale(0.100000,-0.100000)"
fill="#000000" stroke="none">
<path d="M380 983 c0 -15 -2 -16 -10 -3 -5 8 -10 10 -10 4 0 -6 -7 -11 -15
-12 -8 -1 -22 -3 -30 -4 -8 -1 -15 -5 -15 -10 0 -5 -4 -7 -9 -3 -6 3 -14 -3
-20 -12 -5 -10 -13 -17 -18 -17 -14 2 -34 -8 -57 -30 -13 -12 -37 -32 -54 -45
-17 -14 -33 -35 -37 -48 -3 -13 -9 -21 -14 -18 -8 4 -45 -58 -46 -77 0 -3 -3
-10 -7 -14 -5 -4 -8 -16 -8 -26 0 -10 -5 -18 -12 -18 -6 0 -8 -3 -5 -6 3 -4 2
-16 -4 -27 -9 -15 -8 -18 3 -11 11 7 11 5 0 -9 -16 -19 -15 -194 0 -214 6 -7
6 -18 2 -24 -5 -8 -3 -9 5 -4 9 5 12 1 10 -11 -2 -11 1 -26 6 -34 10 -15 11
-20 14 -41 0 -5 5 -7 11 -4 5 3 10 -2 10 -13 0 -10 9 -27 20 -37 11 -10 18
-20 17 -24 -2 -3 14 -23 35 -43 21 -20 38 -34 38 -32 0 3 11 -7 25 -21 14 -14
32 -25 40 -25 8 0 15 -4 15 -9 0 -5 14 -11 31 -15 17 -3 28 -10 25 -15 -4 -5
5 -8 19 -6 14 1 25 -1 25 -6 0 -5 7 -5 17 -2 11 4 14 3 9 -5 -11 -17 223 -13
249 4 11 8 27 14 37 14 10 0 18 5 18 11 0 5 3 8 8 6 14 -9 53 13 46 24 -4 7
-3 9 4 6 13 -9 44 2 37 13 -3 5 4 11 15 15 11 3 28 17 38 30 11 13 21 22 24
20 3 -3 13 5 24 17 19 22 19 23 -1 8 -11 -8 -4 3 14 23 19 20 31 37 26 37 -5
0 0 7 11 15 10 8 16 15 11 15 -4 0 2 16 12 35 10 20 18 50 17 67 -2 27 -1 28
11 12 10 -14 12 4 11 114 -1 72 -5 129 -10 126 -4 -2 -12 5 -18 17 -8 15 -9
19 -1 15 15 -10 14 9 -1 26 -7 7 -14 20 -16 28 -2 7 -13 27 -25 44 -11 16 -15
26 -7 21 9 -5 11 -4 6 3 -4 7 -14 12 -22 12 -8 0 -13 4 -12 8 2 5 -12 25 -29
46 -18 20 -33 34 -33 31 0 -3 -11 5 -23 19 -13 14 -27 23 -30 19 -4 -3 -7 -1
-7 5 0 7 -7 12 -15 12 -8 0 -15 5 -15 11 0 5 -5 7 -10 4 -6 -3 -13 1 -16 10
-6 13 -8 14 -15 3 -7 -10 -9 -10 -9 0 0 6 -8 12 -18 12 -10 0 -26 6 -37 13
-28 19 -211 23 -232 5 -12 -9 -15 -9 -9 0 4 6 2 12 -3 12 -6 0 -11 -8 -11 -17z
m165 -67 c11 2 29 -3 41 -10 13 -9 26 -11 36 -5 12 7 19 5 26 -7 5 -9 11 -15
13 -13 10 5 49 -13 44 -22 -3 -5 0 -6 7 -4 15 6 122 -88 111 -98 -3 -4 1 -7
10 -7 10 0 17 -8 17 -19 0 -11 5 -21 10 -23 13 -4 39 -74 40 -106 0 -13 4 -21
8 -18 5 3 7 -17 6 -45 -1 -27 3 -49 8 -49 6 0 6 -5 -1 -14 -6 -7 -8 -22 -4
-31 4 -11 2 -16 -3 -12 -6 3 -9 -7 -8 -24 1 -16 -2 -29 -6 -29 -5 0 -7 -11 -6
-25 2 -13 -1 -23 -7 -22 -5 1 -11 -7 -13 -18 -1 -11 -8 -21 -13 -23 -6 -2 -11
-9 -11 -17 0 -7 -7 -18 -15 -25 -8 -7 -12 -16 -9 -21 3 -5 1 -8 -4 -7 -6 2
-11 -1 -12 -7 0 -5 -12 -16 -26 -23 -13 -7 -24 -17 -24 -22 0 -9 -39 -26 -53
-22 -5 1 -6 -1 -3 -6 7 -11 -25 -30 -47 -26 -10 1 -14 -2 -10 -8 4 -7 -1 -9
-15 -6 -12 3 -22 2 -24 -3 -2 -5 -15 -10 -30 -11 -16 -1 -28 -6 -28 -11 0 -4
-6 -5 -12 0 -18 10 -38 13 -38 4 0 -4 -7 -8 -15 -8 -8 0 -15 3 -15 7 0 4 -7 7
-15 7 -8 0 -15 -4 -15 -9 0 -5 -7 -3 -15 6 -9 8 -22 13 -30 10 -8 -4 -15 -1
-15 6 0 6 -4 9 -9 5 -11 -6 -92 33 -103 49 -4 6 -8 8 -8 4 0 -15 -100 89 -109
115 -6 16 -15 25 -21 22 -6 -3 -7 1 -4 10 4 9 -1 22 -12 31 -11 9 -12 12 -4 8
13 -7 13 -5 2 9 -8 9 -11 21 -7 27 3 5 1 10 -6 10 -7 0 -10 11 -7 29 3 18 0
28 -6 24 -5 -4 -7 0 -3 9 3 9 0 21 -6 27 -8 8 -8 11 1 11 10 0 10 5 2 20 -6
12 -7 20 -1 20 5 0 8 11 6 25 -1 14 1 25 5 25 7 0 14 30 22 88 1 6 5 12 10 12
5 0 7 4 4 8 -3 5 6 21 19 36 14 16 27 37 31 48 3 11 8 17 11 15 2 -3 17 7 33
21 46 43 58 52 70 52 6 0 9 4 6 8 -3 5 1 9 9 10 8 1 22 3 30 4 8 1 15 6 15 11
0 5 7 7 15 3 8 -3 15 0 15 5 0 7 11 9 25 7 14 -3 25 -2 25 2 0 4 16 7 35 5 19
-1 35 2 35 8 0 6 5 6 13 0 6 -6 21 -9 32 -7z"/>
<path d="M450 761 c0 -7 -6 -11 -14 -8 -8 3 -18 -5 -25 -19 -6 -14 -16 -22
-21 -19 -6 3 -10 2 -10 -4 0 -12 -70 -84 -70 -73 0 4 -6 -4 -13 -18 -8 -14
-19 -24 -25 -23 -7 2 -12 -2 -12 -8 0 -15 -26 -39 -34 -32 -3 4 -6 1 -6 -6 0
-18 -26 -41 -36 -33 -5 4 -2 -1 5 -10 7 -10 10 -18 5 -18 -5 0 -1 -5 9 -11 9
-6 15 -14 12 -20 -4 -5 -2 -9 3 -9 14 0 52 -36 52 -49 0 -6 4 -11 8 -11 15 0
52 -36 52 -50 0 -7 3 -11 6 -7 7 7 29 -12 33 -28 1 -5 11 -14 21 -20 10 -5 19
-14 18 -19 0 -17 26 -25 41 -13 9 7 12 7 8 1 -3 -6 -1 -11 6 -11 8 0 12 14 12
34 0 18 -4 33 -9 33 -5 0 -3 7 4 15 11 13 10 14 -6 9 -10 -4 -16 -4 -12 0 7 9
-53 72 -64 68 -5 -1 -7 2 -5 6 1 5 -18 27 -41 49 l-44 41 87 87 c62 63 85 93
82 106 -3 11 0 19 5 19 6 0 4 8 -3 17 -12 15 -12 16 1 8 13 -8 13 -7 0 11 -8
10 -16 21 -17 23 -2 2 -3 -1 -3 -8z"/>
<path d="M543 748 c-21 -33 -9 -73 33 -115 23 -24 40 -43 38 -43 -2 0 5 -9 16
-20 11 -11 23 -20 28 -20 9 0 35 -40 38 -58 1 -6 -1 -11 -4 -9 -4 2 -15 -4
-24 -15 -10 -10 -16 -18 -13 -18 2 0 -6 -10 -18 -23 -12 -13 -25 -22 -29 -20
-5 2 -8 -4 -8 -13 0 -10 -3 -14 -6 -11 -7 7 -49 -42 -49 -58 -1 -5 -6 -9 -13
-8 -6 2 -9 -4 -6 -12 4 -8 11 -15 18 -15 7 0 7 -3 1 -8 -14 -10 -17 -32 -5
-33 5 -1 16 -2 23 -3 6 -1 20 9 30 21 10 13 23 21 28 18 5 -4 6 2 2 11 -4 11
-3 15 5 10 6 -3 16 3 22 14 6 11 15 18 21 15 5 -4 8 -2 7 3 -2 6 25 37 60 71
34 34 59 61 55 61 -4 0 2 6 12 14 18 13 18 14 -2 39 -11 15 -23 23 -27 20 -3
-3 -6 -1 -6 5 0 12 -198 212 -211 212 -4 0 -11 -6 -16 -12z"/>
</g>
</svg>
